<?xml version="1.0" encoding="utf-8"?><!-- Uploaded to: SVG Repo, www.svgrepo.com, Generator: SVG Repo Mixer Tools -->
<svg width="800px" height="800px" viewBox="0 -0.5 25 25" fill="none" xmlns="http://www.w3.org/2000/svg">
<path d="M16.5 9.75C16.9142 9.75 17.25 9.41421 17.25 9C17.25 8.58579 16.9142 8.25 16.5 8.25V9.75ZM10.5 8.25C10.0858 8.25 9.75 8.58579 9.75 9C9.75 9.41421 10.0858 9.75 10.5 9.75V8.25ZM16.5 12.75C16.9142 12.75 17.25 12.4142 17.25 12C17.25 11.5858 16.9142 11.25 16.5 11.25V12.75ZM10.5 11.25C10.0858 11.25 9.75 11.5858 9.75 12C9.75 12.4142 10.0858 12.75 10.5 12.75V11.25ZM13.5 15.75C13.9142 15.75 14.25 15.4142 14.25 15C14.25 14.5858 13.9142 14.25 13.5 14.25V15.75ZM10.5 14.25C10.0858 14.25 9.75 14.5858 9.75 15C9.75 15.4142 10.0858 15.75 10.5 15.75V14.25ZM7.5 14.75C7.91421 14.75 8.25 14.4142 8.25 14C8.25 13.5858 7.91421 13.25 7.5 13.25V14.75ZM6.5 13.25C6.08579 13.25 5.75 13.5858 5.75 14C5.75 14.4142 6.08579 14.75 6.5 14.75V13.25ZM4.5 13.25C4.08579 13.25 3.75 13.5858 3.75 14C3.75 14.4142 4.08579 14.75 4.5 14.75V13.25ZM6.5 14.75C6.91421 14.75 7.25 14.4142 7.25 14C7.25 13.5858 6.91421 13.25 6.5 13.25V14.75ZM7.5 10.75C7.91421 10.75 8.25 10.4142 8.25 10C8.25 9.58579 7.91421 9.25 7.5 9.25V10.75ZM6.5 9.25C6.08579 9.25 5.75 9.58579 5.75 10C5.75 10.4142 6.08579 10.75 6.5 10.75V9.25ZM4.5 9.25C4.08579 9.25 3.75 9.58579 3.75 10C3.75 10.4142 4.08579 10.75 4.5 10.75V9.25ZM6.5 10.75C6.91421 10.75 7.25 10.4142 7.25 10C7.25 9.58579 6.91421 9.25 6.5 9.25V10.75ZM5.75 10C5.75 10.4142 6.08579 10.75 6.5 10.75C6.91421 10.75 7.25 10.4142 7.25 10H5.75ZM6.5 15H5.75H6.5ZM7.25 14C7.25 13.5858 6.91421 13.25 6.5 13.25C6.08579 13.25 5.75 13.5858 5.75 14H7.25ZM7.25 10C7.25 9.58579 6.91421 9.25 6.5 9.25C6.08579 9.25 5.75 9.58579 5.75 10H7.25ZM5.75 14C5.75 14.4142 6.08579 14.75 6.5 14.75C6.91421 14.75 7.25 14.4142 7.25 14H5.75ZM16.5 8.25H10.5V9.75H16.5V8.25ZM16.5 11.25H10.5V12.75H16.5V11.25ZM13.5 14.25H10.5V15.75H13.5V14.25ZM7.5 13.25H6.5V14.75H7.5V13.25ZM4.5 14.75H6.5V13.25H4.5V14.75ZM7.5 9.25H6.5V10.75H7.5V9.25ZM4.5 10.75H6.5V9.25H4.5V10.75ZM7.25 10V9H5.75V10H7.25ZM7.25 9C7.25 7.20507 8.70507 5.75 10.5 5.75V4.25C7.87665 4.25 5.75 6.37665 5.75 9H7.25ZM10.5 5.75H16.5V4.25H10.5V5.75ZM16.5 5.75C18.2949 5.75 19.75 7.20507 19.75 9H21.25C21.25 6.37665 19.1234 4.25 16.5 4.25V5.75ZM19.75 9V15H21.25V9H19.75ZM19.75 15C19.75 16.7949 18.2949 18.25 16.5 18.25V19.75C19.1234 19.75 21.25 17.6234 21.25 15H19.75ZM16.5 18.25H10.5V19.75H16.5V18.25ZM10.5 18.25C8.70507 18.25 7.25 16.7949 7.25 15H5.75C5.75 17.6234 7.87665 19.75 10.5 19.75V18.25ZM7.25 15V14H5.75V15H7.25ZM5.75 10V14H7.25V10H5.75Z" fill="#000000"/>
</svg>