<?xml version="1.0" encoding="UTF-8"?>
<svg id="Layer_1" data-name="Layer 1" xmlns="http://www.w3.org/2000/svg" viewBox="0 0 203 344.51">
  <defs>
    <style>
      .cls-1 {
        fill: #231f20;
      }

      .cls-2 {
        fill: #fff;
      }
    </style>
  </defs>
  <path class="cls-1" d="M36,0h132.54s16.46,2,24.46,13,10,19,10,32v261c0,2.45-.17,5.93-1,10-1.08,5.31-2.48,12.16-8,18-4.27,4.52-9.12,6.43-12,7.53-5.5,2.1-10.14,2.38-12,2.47-22.4,1.13-128.31.06-129,0-2.06.22-18.83,1.75-31-11C.94,323.51.12,312.08,0,309V39.2c.18-3.3,1.3-16.37,12-27.2C21.37,2.52,32.4.51,36,0Z"/>
  <path class="cls-2" d="M11,308c-.33-90.33-.67-180.67-1-271,0,0,2-11,7-16s18-9,18-9h22.4s2.6,18,9.6,18,56,1,56,1c14,0,17.74-1.4,19-4,1.02-2.11.79-6.08,3-13,.25-.78.46-1.39,1-2,1.89-2.16,5.37-1.67,12-1,2.19.22,5.84.57,10.54.94,0,0,24.46,2.06,24.46,37.06v255c.01,3.35-.31,15.13-8,23-2.22,2.27-4.6,3.75-5,4-6.01,3.7-12.02,4.04-15,4H37c-3.79-.78-8-2-14-6-3.14-2.09-7.4-5.2-10-11-1.81-4.04-2.04-7.77-2-10Z"/>
  <path class="cls-1" d="M48,22c.62,4.13,2.35,11.03,8,15,3.54,2.49,7.25,2.85,9,3,10.16.85,37.48,1.33,74,1,4.35.22,6.76-1.08,8-2,2.98-2.22,4.59-7.17,7.69-17,.13-.43.24-.78.31-1h13c3.16.37,7.75,1.44,11,5,3.77,4.13,3.96,9.66,4,12,.21,11.21.29,118.66,0,266,0,0-4,18-16,20s-123,0-123,0c0,0-23,0-24-16s0-268,0-268c.02-1.96.34-6.05,3-10,3.93-5.84,10.26-7.33,13.14-8,4.77-1.12,8.97-.65,11.86,0Z"/>
  <polygon class="cls-2" points="203 45 0 251.82 0 268.25 203 60.46 203 45"/>
  <path class="cls-2" d="M83,129s-27-20-8,5,19.34,21.7,19.34,21.7l8.61-8.77-19.95-17.93Z"/>
  <path class="cls-2" d="M121.19,178.6s30.21,27.29,4.51-5.15-14.87-18.64-14.87-18.64l-7.88,8.06,18.23,15.73Z"/>
</svg>